<svg xmlns="http://www.w3.org/2000/svg" viewBox="0 0 192 192"><defs><style>.grey{fill:#e0e0e0}.white{fill:#fff}</style></defs><path fill="#089082" d="M0 0h192v192H0z"/><path d="M143.18 92h1.45q.38 0 .39.15c0 .24-.4.54-4.52 4.65l-.42.71c2.95 6.93 2.93 6.67 2.84 6.88s-.19.15-.44.15a14.1 14.1 0 0 1-2.43-.06c-.18-.1-.18-.27-1.78-4-.74 1.17-1.51 2.33-2.29 3.47-.08.35-.12.43-.21.49a.36.36 0 0 1-.18.07 122.79 122.79 0 0 1-89.77 52.41 14.85 14.85 0 0 0 3.87.52h92.62a15.12 15.12 0 0 0 15.12-15.12V49.69a14.85 14.85 0 0 0-.52-3.87A122 122 0 0 1 143.18 92z" class="grey"/><path d="M137.82 99.42c.17.38.31.73.45 1-.74 1.17-1.51 2.33-2.29 3.47.1-.47.28-1.42.73-3.48zm-56.24-4.27a1.55 1.55 0 0 0-.52-.61 1.53 1.53 0 0 0-.88-.25 2 2 0 0 0-.92.23 3.35 3.35 0 0 0-.82.57 4.92 4.92 0 0 0-.69.82 4.07 4.07 0 0 0-.5 1h4.51a2.78 2.78 0 0 0 0-.91 2.49 2.49 0 0 0-.18-.85zm45-.79c-3.92 0-5.61 8-1.68 8s5.68-8 1.72-8zm-80.8 62.55a15.1 15.1 0 0 1-11.25-14.6V49.69a15.12 15.12 0 0 1 15.12-15.12h92.66a15.1 15.1 0 0 1 14.6 11.25A122 122 0 0 1 143.18 92a3.35 3.35 0 0 0-1 0c-.18.09-.11.08-4.59 4.38l2.06-9.68c.06-.29-.06-.44-.35-.44h-2a.49.49 0 0 0-.52.44c-3.81 18.13-3.79 17.5-3.66 17.66s.45.07 2.36.09h.18a122.77 122.77 0 0 1-89.84 52.46zm11-61.28c4.21-1.84 5.08-8.15-1.33-8.15h-4c-.82 0-.09-.54-4 16.69-.12.56-.19.38 3.73.4s6.75-1.5 7.55-5.24a3.21 3.21 0 0 0-1.98-3.7zm14.58-2.76c-1.06-1.39-3.8-1.32-5.32-.86-2.85.85-1.89.68-2.61 3.13-.19.92.59.19 1.63-.26 2.18-.94 4.16-1 3.84 1.37-3.6-.22-7.23 1-8 4.43-1 4.75 4.68 5 6.66 2.67-.23 1.22-.38 1.26 0 1.26 2.58 0 2.43.17 2.51-.53.64-4.77 2.77-9.21 1.26-11.21zm2.56 5.44c-1.09 5.15 1.75 7.33 6.34 6.35A5.91 5.91 0 0 0 82 104c.67-.45.23-.34.79-2.24.11-.54 0-.6-.46-.36-2.71 1.5-6 1.38-5.64-2.06h6.94c.65 0 .61-.69.77-1.29 1.91-9.05-8.74-8.11-10.51.26zM95.47 104l-2.85-6.66 4.64-4.59c.44-.42.6-.71 0-.71h-2.18c-.49 0-.06-.19-4.89 4.42 1.94-9.84 2.51-10.12 1.7-10.12-1.82.11-2.4-.28-2.55.44-4 18.86-4 17.75-3.34 17.75 3.4 0 2.1.79 3.34-4.06l1.11-1c2.34 5.47 2 5.15 2.64 5.15 1.83-.15 2.81.25 2.38-.62zm10.9-11.63a7.79 7.79 0 0 0-1.24-.4c-5.19-1.19-7.38 3.33-6.41 5.25a2.9 2.9 0 0 0 1 1.14c.86.6 2.93 1.64 2.7 2.75-.42 2-2.84 1.52-4.7.8-.29-.11-.4 0-.51.31l-.52 1.62c-.09.3 0 .35.27.51 2.73 1.35 7.52.52 8.34-3.35a2.69 2.69 0 0 0 0-1.66 4.1 4.1 0 0 0-1-1.24c-.16-.14-.41-.32-.73-.55-.71-.5-2.28-1.27-2.11-2.07a1.52 1.52 0 0 1 .51-.9c.77-.63 2.56-.31 3.46.17.32.16.43.1.56-.22l.56-1.69c.07-.28.06-.34-.18-.48zm10.24-.13c-2.91-1.73-7.86.61-9 6.08-1 5 1.58 7.37 6.34 6.35a5.89 5.89 0 0 0 1.78-.67c.52-.35.31-.19.78-2.24.3-1.4-1 .66-3.9.53-1.47-.06-2.41-1-2.2-3 7.51-.09 7.3.31 7.55-.56.39-2.29 1-5.11-1.35-6.5zm7.77 12.69c8 0 10.73-13.16 2.79-13.16s-10.61 13.15-2.79 13.15zm15.7-7.38l.42-.71-.51.5zM111 96.89h4.5c.67-3.34-3.33-3.54-4.5 0zm-57.51-6.72l-.9 4.28a8.38 8.38 0 0 0 2.34-.18c2-.61 2.25-2.82 1.69-3.5s-2.07-.58-3.13-.6zm10.39 10.53c-.39 1.87 2.07 1.9 3.39.62a5.57 5.57 0 0 0 1.34-2.83c-2.06.03-4.32.29-4.73 2.21zM52 96.93l-1 4.95a10.57 10.57 0 0 0 2.57-.19c2.31-.64 2.76-3.15 1.84-4S52.35 97 52 96.93z" class="white"/><rect width="11.34" height="18.9" x="40.24" y="10" class="white" rx="5.27"/><rect width="11.34" height="18.9" x="60.09" y="10" class="white" rx="5.27"/><rect width="11.34" height="18.9" x="79.93" y="10" class="white" rx="5.27"/><rect width="11.34" height="18.9" x="99.78" y="10" class="white" rx="5.27"/><rect width="11.34" height="18.9" x="119.63" y="10" class="white" rx="5.27"/><rect width="11.34" height="18.9" x="139.47" y="10" class="white" rx="5.27"/><rect width="11.34" height="18.9" x="40.24" y="163.1" class="grey" rx="5.27"/><rect width="11.34" height="18.9" x="60.09" y="163.1" class="grey" rx="5.27"/><rect width="11.34" height="18.9" x="79.93" y="163.1" class="grey" rx="5.27"/><rect width="11.34" height="18.9" x="99.78" y="163.1" class="grey" rx="5.27"/><rect width="11.34" height="18.9" x="119.63" y="163.1" class="grey" rx="5.27"/><rect width="11.34" height="18.9" x="139.47" y="163.1" class="grey" rx="5.27"/><rect width="18.9" height="11.34" x="163.09" y="139.94" class="grey" rx="5.27"/><rect width="18.9" height="11.34" x="163.1" y="120.1" class="grey" rx="5.27"/><rect width="18.9" height="11.34" x="163.1" y="100.25" class="grey" rx="5.27"/><rect width="18.9" height="11.34" x="163.1" y="80.41" class="grey" rx="5.27"/><rect width="18.9" height="11.34" x="163.1" y="60.56" class="grey" rx="5.27"/><rect width="18.9" height="11.34" x="163.09" y="40.71" class="grey" rx="5.27"/><rect width="18.9" height="11.34" x="10" y="139.95" class="white" rx="5.27"/><rect width="18.9" height="11.34" x="10" y="120.1" class="white" rx="5.27"/><rect width="18.9" height="11.34" x="10" y="100.25" class="white" rx="5.27"/><rect width="18.9" height="11.34" x="10" y="80.41" class="white" rx="5.27"/><rect width="18.9" height="11.34" x="10" y="60.56" class="white" rx="5.27"/><rect width="18.9" height="11.34" x="10" y="40.72" class="white" rx="5.27"/></svg>