<svg xmlns="http://www.w3.org/2000/svg" viewBox="0 0 1920 1080"><path d="M-1 1081V826s331.8 86 333.3 83 36.8-6.6 36.8-6.6l21.3 6.7h36.8l32.4-7.4 44.9 19.8 4.4-3.7 12.5 8.1 16.4-2.7 34.6 6.9 54.7-13.7 38 9.5 53.2-4.2 32.4 12.2 29.4-12 33.4 8.6 43.2-6.9 14.7-13.7 47.1-17.1 17.4-6.1 22.1 3.2 13.7-.5 15.4 3.6 28.5-4.2 18.1 2.4 15.7-2.9 22.6 2.5 30.7 19.6 7.4 10.8 21.1-1 26.2 15.4 27.7 4.7 24.5 15.4 7.4-1.7 14.2-1.5 14.5 3.2 20.1 7.6 23.8-2.2 22.3 5.6 11 5.4h10.1l8.9 1.6 44.5-12.6 15.8-.3 8.9 3 13-5.7 14-.7 44.3 17 15.5-1 58-21.4 23.1 3.2 33 10.4 31.3-7.6 11.1-.7 10.9-11.1 9.4 1.5 37.6-17 26.1-17.3 13.8 3.5 11.6-8.1 8.6 3.4 11.1-12h9.5l17.5-11.9 6.4 1.7 8.4-7.7 12.1 2.5 6.2-3.7h8.2l14.1-13.1 46.7-3.7 8.7-7.4V1081"/></svg>