<svg xmlns="http://www.w3.org/2000/svg" viewBox="0 0 102.68 107.61"><path fill="#cdcdcd" stroke="#000" stroke-miterlimit="10" stroke-width="2" d="M51.35 106.61C23.72 106.61 5.11 73 1 39.86l1-1.12h98.68l1 1.12c-2.07 16.68-8 33.19-16.14 45.29-9.54 14.04-21.32 21.46-34.19 21.46z"/><path fill="#349933" stroke="#000" stroke-miterlimit="10" stroke-width="2" d="M1 40.74V14h2.77C24.62 14 41.72 9.55 50.7 1.83l.62-.54.68.51c10 7.79 26.09 12.26 44.27 12.26 1.45 0 2.94 0 4.4-.09h1v26.77z"/><path fill="none" stroke="#000" stroke-miterlimit="10" stroke-width="2" d="M50.85 35.14c18.94-.51 20.34-10.66 0-11.11-20.51.45-20.71-9.87 0-10.21zM20 16.63l-9.57 3.91v13.2H28.3V20.59l-17.49.04m-.04 6.34h17.27m66.26-9.19H72.98m-3.33 13.41c7.58-4.64 7.5-8.31 9.58-13.41m-2.29 7.4h14.68v9.96H76.94zM51.6 53.48l-.83 3.62m14.17 0H36.47m8.17 13.91V57.1m11.87 13.91V57.1m-1.02 4.34H45.4m10.09 4.98H45.4M35.39 84.93V71.01h30.82v13.92h-3.95m-17.62-9.45h11.87v5.11H44.64z"/></svg>