<svg xmlns="http://www.w3.org/2000/svg" viewBox="0 0 270.3 326.9">
  <style>
    .stroke { fill: #231815; }
    .sky { fill: #00afec; }
    .sea { fill: #005bac; }
    .text { fill: white; }
  </style>
  <path class="stroke" d="M248.1 60.1h-44.8V48.8h-17V0H118c-13.2 0-24.1 4.4-31.6 12.7S75.9 31.3 75.9 44v16.1H22.2L0 269.3l135.2 57.6 135.1-57.6zM135.4 321.9h-.5L5.2 266.7l-.4-.2v-.5L26.1 65.1v-.6h54.2V44c0-11.6 3.3-21.4 9.4-28.3S106.1 4.4 118 4.4h63.9v48.8h17v11.3h45.2v.6L265.5 266v.5l-.4.2zM122.6 29.4c-6.5 0-13.5 4.7-13.5 14.9v20.2H129V29.4zm2 30.7h-11V44.3c0-7.7 4.8-10.5 9-10.5h2z"/>
  <path class="sky" d="M198.9 86.9V72.4H237l5.8 53.9h-43.9v-7.9h-17V87.5h17zM33.3 72.4l-5.8 53.9h52.8V72.4zm95.7 53.9V72.4h-19.9v53.9z"/>
  <path class="sea" d="M243.5 133.6h-44.6v18.8h-17v26.1H129v-44.9h-19.9v5c0 25.8-23.9 39.2-47.6 39.2h-2.3v-27.9h1.5c11.2 0 19.6-5.8 19.6-13.6v-2.7H26.8L13.2 261.5l122 52 121.9-52z"/>
  <g class="text">
    <path class="text__1" d="M77.8 217.7v3.5h8.5v29.1h4.5v-40h-3.5c-.6 6.3-3.8 7.3-9.5 7.4z"/>
    <path class="text__9" d="M113.5 210.3c-6.1 0-10.6 5.4-10.6 14 0 6.4 3.1 12.2 10.3 12.2a7.8 7.8 0 0 0 7.3-4.9h.1c-.2 4.3-.1 15.6-6.9 15.6-3.8 0-5.3-2-5.3-5.6h-4.5c.1 5.8 3.4 9.6 9.3 9.6 11.5 0 11.8-14 11.8-22.3s-.8-18.6-11.5-18.6zm.2 22.2c-5.2 0-6.2-4.9-6.2-9s1.1-9.2 6.1-9.2 6.6 5.6 6.6 9.9-1.5 8.3-6.5 8.3z"/>
    <path class="text__5" d="M146.9 224.1a8.1 8.1 0 0 0-6.5 2.9l1.8-11.9h13.4v-4h-17l-2.4 20.6h4a5.7 5.7 0 0 1 5.6-3.6c5.6 0 6.6 4.8 6.6 9.4s-1.7 9.7-6.3 9.7-6.2-3-6-7.3h-4.6c-.3 7.1 3.6 11.3 10.7 11.3s10.8-7.3 10.8-14.4-2.8-12.7-10.1-12.7z"/>
    <path class="text__4" d="M182.3 236.3v-26h-4.1l-14.9 25.9v4.1h14.6v10h4.4v-10h3.6v-4zm-4.4 0h-11.1l11.1-19.1z"/>
  </g>
</svg>