<svg xmlns="http://www.w3.org/2000/svg" viewBox="0 0 1920 1080">
  <path fill="black" d="M0,1080V826c0,0,331.8,86,333.3,83s36.8-6.6,36.8-6.6l21.3,6.7h36.8l32.4-7.4l44.9,19.8l4.4-3.7l12.5,8.1l16.4-2.7l34.6,6.9
	l54.7-13.7l38,9.5l53.2-4.2l32.4,12.2l29.4-12l33.4,8.6l43.2-6.9l14.7-13.7l47.1-17.1l17.4-6.1l22.1,3.2l13.7-0.5l15.4,3.6l28.5-4.2
	l18.1,2.4l15.7-2.9l22.6,2.5l30.7,19.6l7.4,10.8l21.1-1l26.2,15.4l27.7,4.7l24.5,15.4l7.4-1.7l14.2-1.5l14.5,3.2l20.1,7.6l23.8-2.2
	l22.3,5.6l11,5.4h10.1l8.9,1.6l44.5-12.6l15.8-0.3l8.9,3l13-5.7l14-0.7l44.3,17l15.5-1l58-21.4l23.1,3.2l33,10.4l31.3-7.6l11.1-0.7
	l10.9-11.1l9.4,1.5l37.6-17l26.1-17.3l13.8,3.5l11.6-8.1l8.6,3.4l11.1-12h9.5l17.5-11.9l6.4,1.7l8.4-7.7l12.1,2.5l6.2-3.7h8.2
	l14.1-13.1l46.7-3.7l7.7-7.4V1080"/>
</svg>