<svg xmlns="http://www.w3.org/2000/svg" viewBox="0 0 363 363"><path fill="#e40043" d="M0 0h363v363H0z"/><path fill="#fff" d="M121.44 143.89c16.81 8.07 14.22 3.55 32.75 1.32 19.5-2.2 23.28-1.45 86.92-2.51 10.19 0 12.33-4.65 12.33-8.56 0-3-1.41-7-8.17-8.26a74.65 74.65 0 0 0-14.46-1.3c-14.66 0-16.21 5.59-38.25 7.57-17.59 1.64-50.45 2.12-77.72-1.24a3.52 3.52 0 0 0-3.77 3.77c0 2.9 3.19 5.78 10.37 9.21zm31.74 22.5c-7.69-9.13-10.92-10.3-12.88-10.3-1.78 0-2.67 1.86-3.51 3.24v.53c0 4.76 8.84 18.93 10.12 25.95 1.37 9.39.09 12.1 1.37 21 .33 2.24 1.86 6 8.41 6 2.83 0 5.29-2.07 7.33-6.15a29.83 29.83 0 0 0 2.2-18.37c-1.08-7.27-7.75-15.56-13-21.88zm112.71 50.79a15.84 15.84 0 0 0-8.64-3.34c-4.26.28-18-1.51-32 5.16-2.95 1-17.6 1.62-20.69 1.74 1.41-3.53 15.93-40.61 16.61-44.28 2.56-5.91 10.5-12.5-8.9-19.15-7.85-2.71-13.75-4-18-4-3-.11-6.53 1-6.53 4 0 4.37 14.62 9.92 14.62 14.12 0 6.1-6.82 35.47-11.1 50.18-42.41.6-67.21 2.76-91.61-2.21h-.44a3.53 3.53 0 0 0-3.77 3.71c0 3.06 3.29 6.38 10.68 10.79 6.88 4.1 11.67 6.1 14.77 6.1 3.84-.25 5.09-1.34 10.74-1.82 32.49-5.74 58.87-4.68 96.9-5.76 16.12 0 28.72 2.57 36.07-1.72 3.16-1.85 4.77-4.14 4.77-6.81a8.79 8.79 0 0 0-3.48-6.71z"/></svg>