<?xml version="1.0" encoding="utf-8"?>
<svg version="1.1" xmlns="http://www.w3.org/2000/svg" xmlns:xlink="http://www.w3.org/1999/xlink" x="0px" y="0px" viewBox="0 0 1920 1920" preserveAspectRatio="xMidYMid">
	<g>
		<circle cx="959.5" cy="959.5" r="900" fill="#3f51b5"/>
		<path d="M59.51,960.5c0.54,496.6,403.27,899,899.99,899s899.45-402.4,899.99-899H59.51z" fill="#303f9f"/>
		<circle cx="959.5" cy="959.5" r="750" fill="#5363bd"/>
		<path d="M959.5,1709.5c414.21,0,750-335.79,750-750h-1500C209.5,1373.71,545.29,1709.5,959.5,1709.5z" fill="#4553a9"/>
		<path d="M1087.23,1086.17c-2.34,0-4-0.25-5-0.75s-2-1.92-3-4.25l-36-90h-163l-36,90c-0.67,2.33-1.5,3.75-2.5,4.25s-2.67,0.75-5,0.75h-46c-6,0-8-2.34-6-7l146-364.5c1-2.66,1.75-4.25,2.25-4.75s2.41-0.75,5.75-0.75h46.5c3,0,4.83,0.25,5.5,0.75c0.66,0.5,1.5,2.09,2.5,4.75l146,364.5c1.66,4.66-0.34,7-6,7H1087.23z M900.73,938.67h121.5l-60.5-154.25L900.73,938.67z" fill="#FFFFFF"/>
		<rect x="735" y="1140" width="450" height="50" fill="#FFFFFF"/>
	</g>
</svg>
